<?xml version="1.0" encoding="UTF-8"?>
<svg width="41px" height="55px" viewBox="0 0 41 55" version="1.1" xmlns="http://www.w3.org/2000/svg" xmlns:xlink="http://www.w3.org/1999/xlink">
    <!-- Generator: Sketch 62 (91390) - https://sketch.com -->
    <title>tesla-motors-1</title>
    <desc>Created with Sketch.</desc>
    <g id="Page-1" stroke="none" stroke-width="1" fill="none" fill-rule="evenodd">
        <g id="tesla-motors-1" fill="#000000" fill-rule="nonzero">
            <path d="M35.027405,51.8749912 L35.027405,54.8900997 L36.061262,54.8900997 L36.061262,52.8826418 L39.8240189,52.8826418 L39.8240189,54.8900997 L40.8571403,54.8900997 L40.8571403,51.88022 L35.027405,51.8749912 Z M35.946062,50.8996767 L39.9214166,50.8996767 C40.4735818,50.7970265 40.8842115,50.3412927 41,49.9004198 L34.8676257,49.9004198 C34.9822372,50.3414303 35.3988991,50.7970265 35.946062,50.8996767 M31.8962616,54.8920261 C32.4175303,54.6853497 32.6979531,54.3278629 32.8053554,53.9095565 L28.1683736,53.9095565 L28.1713161,49.9028966 L27.1318683,49.9056486 L27.1318683,54.8920261 L31.8962616,54.8920261 Z M19.402143,50.8861919 L23.0735345,50.8861919 C23.6270239,50.7357942 24.0917961,50.3414303 24.2050834,49.9042726 L18.3729941,49.9042726 L18.3729941,52.8509936 L23.146362,52.8509936 L23.146362,53.8850635 L19.402143,53.8878155 C18.8154031,54.0408276 18.3178217,54.4093226 18.0696195,54.8960166 L18.3729941,54.8907877 L24.17198,54.8907877 L24.17198,51.8712759 L19.402143,51.8712759 L19.402143,50.8861919 Z M10.3387172,50.8956863 L14.3127476,50.8956863 C14.8656485,50.7926233 15.2765725,50.3373023 15.3917724,49.8960166 L9.2596924,49.8960166 C9.37415671,50.3373023 9.79111285,50.7926233 10.3387172,50.8956863 M10.3387172,52.8664049 L14.3127476,52.8664049 C14.8656485,52.7644427 15.2765725,52.3087089 15.3917724,51.8671479 L9.2596924,51.8671479 C9.37415671,52.3088465 9.79111285,52.7644427 10.3387172,52.8664049 M10.3387172,54.8914757 L14.3127476,54.8914757 C14.8656485,54.7886879 15.2765725,54.3330917 15.3917724,53.8920812 L9.2596924,53.8920812 C9.37415671,54.3332293 9.79111285,54.7886879 10.3387172,54.8914757 M0,49.9081254 C0.119466613,50.3439071 0.522887122,50.7893209 1.07637653,50.9009151 L2.74920336,50.9009151 L2.83453666,50.9324257 L2.83453666,54.8803301 L3.87913389,54.8803301 L3.87913389,50.9324257 L3.9740304,50.9009151 L5.6483285,50.9009151 C6.20799722,50.7660664 6.60273727,50.3439071 6.72014411,49.9081254 L6.72014411,49.8984934 L0,49.8984934 L0,49.9081254 Z" id="Shape"></path>
            <path d="M21.0039689,38.8960166 L26.2188173,9.13509034 C31.1895044,9.13509034 32.7573693,9.68818811 32.9837439,11.9457757 C32.9837439,11.9457757 36.3182129,10.6841519 38,8.12182357 C31.4371936,5.03593179 24.8430769,4.89676237 24.8430769,4.89676237 L20.9952961,9.6523889 L21.0039689,9.65179225 L17.1561881,4.89601655 C17.1561881,4.89601655 10.5619244,5.03533514 4,8.12122692 C5.68031717,10.6835553 9.01610909,11.945179 9.01610909,11.945179 C9.24380669,9.68744229 10.8097606,9.13434452 15.7470795,9.1307646 L21.0039689,38.8960166 Z" id="Path"></path>
            <path d="M20.5,3.23664743 C25.7658291,3.19458922 31.7931534,4.08741189 37.9633218,6.89601655 C38.7879953,5.34580576 39,4.66068359 39,4.66068359 C32.2550989,1.87371758 25.9385845,0.919940972 20.4992705,0.896016555 C15.0602483,0.919940972 8.74402565,1.87386996 2,4.66068359 C2,4.66068359 2.30086283,5.50459074 3.03594864,6.89601655 C9.20494984,4.08741189 15.2332955,3.19458922 20.4992705,3.23664743 L20.5,3.23664743 Z" id="Path"></path>
        </g>
    </g>
</svg>